<svg width="12" height="10" viewBox="0 0 12 10" fill="none" xmlns="http://www.w3.org/2000/svg">
<path d="M5.99995 6.60024C6.88363 6.60024 7.59999 5.88387 7.59999 5.00019C7.59999 4.11651 6.88363 3.40015 5.99995 3.40015C5.11627 3.40015 4.3999 4.11651 4.3999 5.00019C4.3999 5.88387 5.11627 6.60024 5.99995 6.60024Z" fill="#606483"/>
<path d="M11.9762 4.86422C11.5057 3.64724 10.6889 2.5948 9.62682 1.83697C8.56472 1.07913 7.30383 0.649128 6 0.600098C4.69617 0.649128 3.43528 1.07913 2.37318 1.83697C1.31107 2.5948 0.494308 3.64724 0.0238305 4.86422C-0.0079435 4.9521 -0.0079435 5.04834 0.0238305 5.13623C0.494308 6.3532 1.31107 7.40564 2.37318 8.16348C3.43528 8.92131 4.69617 9.35132 6 9.40035C7.30383 9.35132 8.56472 8.92131 9.62682 8.16348C10.6889 7.40564 11.5057 6.3532 11.9762 5.13623C12.0079 5.04834 12.0079 4.9521 11.9762 4.86422ZM6 7.6003C5.48575 7.6003 4.98306 7.4478 4.55548 7.1621C4.1279 6.8764 3.79464 6.47033 3.59785 5.99523C3.40105 5.52013 3.34956 4.99734 3.44989 4.49297C3.55021 3.98861 3.79784 3.52532 4.16147 3.16169C4.5251 2.79807 4.98839 2.55043 5.49275 2.45011C5.99712 2.34978 6.5199 2.40127 6.995 2.59807C7.47011 2.79486 7.87618 3.12812 8.16188 3.5557C8.44758 3.98328 8.60007 4.48598 8.60007 5.00022C8.59902 5.68948 8.32474 6.3502 7.83736 6.83758C7.34998 7.32496 6.68926 7.59924 6 7.6003Z" fill="#606483"/>
</svg>
