<svg width="20" height="20" viewBox="0 0 20 20" fill="none" xmlns="http://www.w3.org/2000/svg">
<path d="M8.65155 2.22217C8.51894 2.22217 8.39177 2.27485 8.298 2.36861L7.66667 2.99995H3.5C3.22386 2.99995 3 3.2238 3 3.49995V4.0555C3 4.33164 3.22386 4.5555 3.5 4.5555H16.5C16.7761 4.5555 17 4.33164 17 4.0555V3.49995C17 3.2238 16.7761 2.99995 16.5 2.99995H12.3333L11.702 2.36861C11.6082 2.27485 11.4811 2.22217 11.3484 2.22217H8.65155ZM4.62273 6.11106C4.32393 6.11106 4.09183 6.37141 4.12601 6.66825L5.24978 16.4272C5.35245 17.1972 6.01544 17.7777 6.79167 17.7777H13.2068C13.983 17.7777 14.6468 17.1982 14.7502 16.4212L15.8739 6.66829C15.9082 6.37143 15.6761 6.11106 15.3772 6.11106H4.62273Z" fill="#606483"/>
<line x1="12.5659" y1="15.4418" x2="13.4418" y2="8.43412" stroke="white" stroke-linecap="round"/>
<line x1="0.5" y1="-0.5" x2="7.56226" y2="-0.5" transform="matrix(-0.124035 -0.992278 -0.992278 0.124035 7 16)" stroke="white" stroke-linecap="round"/>
<line x1="10" y1="15.5" x2="10" y2="8.5" stroke="white" stroke-linecap="round"/>
</svg>
